<svg id="Capa_1" data-name="Capa 1" xmlns="http://www.w3.org/2000/svg" viewBox="0 0 1108.11 1118.59"><defs><style>.cls-1{fill:none;stroke:#fff;stroke-miterlimit:10;stroke-width:41.46px;}.cls-2{fill:#bd1622;}.cls-3{fill:#e20613;}.cls-4{fill:#9d9d9d;}.cls-5{fill:#ffce01;}.cls-6{fill:#2b4294;}.cls-7{fill:#f8ba83;}.cls-8{fill:#a36234;}.cls-9{fill:#575756;}.cls-10{fill:#d9d9d9;}.cls-11{fill:#fff6b1;}.cls-12{fill:#b6970c;}.cls-13{fill:#272c63;}.cls-14{fill:#c18a62;}.cls-15{fill:#3f1e0e;}.cls-16{fill:#4f2712;}.cls-17{fill:#f8d6aa;}.cls-18{fill:#8692c8;}</style></defs><title>giro_02</title><path class="cls-1" d="M72.27,777.55c-10.24,25.56,23,68.9,30.09,77.68-4.16,5.17-7.13,10.53-9.23,13.66-6.35,9.47-8.69,8.54-28.28,4.49S53,898,54.88,917.24c1.32,13.11-3.82,26-7.22,32.89-17.15-13.25-42.55,38.7-42.15,68.59.45,32.8,78.25,58.76,116.68,57.85s89.69-13.75,100.63-69.13c.64-3.25,1.34-6.24,2.09-9l.67.78s62.85,17.58,95.76,26.35,51.35,3.58,51.35,3.58m0,0S513.1,930.6,542.77,894.57,508.59,787,508.59,787L525,768.65c39.55-24.44,41.83-42.26,38.86-51.52,28.37,10.5,50-27.14,50-27.14S975.09,249.85,992.77,227.87s-.75-30.58-.75-30.58l-.33-.26c7.83-.69,30.57-6.46,54.72-47.82,29.87-51.15,32.63-113.78,14-126s-31.71-12.6-58.85-1.14c0,0-1.65-30.32-33.89-20.79-28.58,8.45-91,59.46-94.46,91.89-2.52,1.82-3.3,2-3.52,1.77-.39-.37.83-1.92.7-2.1C869.87,92.09,839,108,695.84,214.64c0,0-60.24,44.86-248.29,210.74-13.23,11.67-41,36.64-59.38,78a206.4,206.4,0,0,0-12.72,38.32c-11.78,1.54-21.14,21-25.42,26.83-5.58,7.59-50.51,51.09-50.51,51.09s-2.44-1.44-6.49-3.78c-2-1.56-3.69-3.08-4.18-4.18-.24-.53-1.38-.51-3.12-.05-19.07-11-52.41-30.16-63.62-35.5-16-7.64-34.53-14.39-69.17,14.46C128.46,611,104,681.71,87.72,731.5m112.17-15.35s10.86-47.23,22-45.18c7.85,1.45,9.5,1.88,9.8,2l0,.1a20.72,20.72,0,0,0-2.14,9.49,7.14,7.14,0,0,0,2.07,6,11,11,0,0,0,3,2.68c.38.29.78.58,1.21.88.61.43,1.23.85,1.85,1.25A260.81,260.81,0,0,0,199.89,716.15Z" transform="translate(15.22 21.27)"/><path class="cls-2" d="M835.74,252.35C958.35,362.7,1017.93,535.18,976.09,706.67c-60.61,248.47-311.18,400.75-559.65,340.13a460.85,460.85,0,0,1-227.2-132.15" transform="translate(15.22 21.27)"/><path class="cls-3" d="M189.24,914.65C85.4,804.32,37.73,645.31,76.31,487.16,136.93,238.69,387.49,86.4,636,147A461.15,461.15,0,0,1,835.74,252.35" transform="translate(15.22 21.27)"/><path class="cls-1" d="M1060.45,23.24c-18.59-12.19-31.71-12.6-58.85-1.14,0,0-1.65-30.32-33.89-20.79-28.58,8.45-91,59.46-94.46,91.89-2.52,1.82-3.3,2-3.52,1.77-.39-.37.83-1.92.7-2.1C869.87,92.09,839,108,695.84,214.64c0,0-60.24,44.86-248.29,210.74-13.23,11.67-41,36.64-59.38,78a206.4,206.4,0,0,0-12.72,38.32c-11.78,1.54-21.14,21-25.42,26.83-5.58,7.59-50.51,51.09-50.51,51.09s-2.44-1.44-6.49-3.78c-2-1.56-3.69-3.08-4.18-4.18-.24-.53-1.38-.51-3.12-.05-19.07-11-52.41-30.16-63.62-35.5-16-7.64-34.53-14.39-69.17,14.46S83.71,749,72.27,777.55c-10.24,25.56,23,68.9,30.09,77.68-4.16,5.17-7.13,10.53-9.23,13.66-6.35,9.47-8.69,8.54-28.28,4.49S53,898,54.88,917.24c1.32,13.11-3.82,26-7.22,32.89-17.15-13.25-42.55,38.7-42.15,68.59.45,32.8,78.25,58.76,116.68,57.85s89.69-13.75,100.63-69.13c.64-3.25,1.34-6.24,2.09-9l.67.78s62.85,17.58,95.76,26.35,51.35,3.58,51.35,3.58S513.1,930.6,542.77,894.57,508.59,787,508.59,787L525,768.65c39.55-24.44,41.83-42.26,38.86-51.52,28.37,10.5,50-27.14,50-27.14S975.09,249.85,992.77,227.87s-.75-30.58-.75-30.58l-.33-.26c7.83-.69,30.57-6.46,54.72-47.82C1076.28,98.06,1079,35.43,1060.45,23.24ZM221.89,671c7.85,1.45,9.5,1.88,9.8,2l0,.1a20.72,20.72,0,0,0-2.14,9.49,7.14,7.14,0,0,0,2.07,6,11,11,0,0,0,3,2.68c.38.29.78.58,1.21.88.61.43,1.23.85,1.85,1.25a260.81,260.81,0,0,0-37.75,22.79S210.75,668.92,221.89,671Z" transform="translate(15.22 21.27)"/><path class="cls-4" d="M988.82,197.07s27.72,3.29,57.59-47.86,32.63-113.78,14-126-31.71-12.6-58.85-1.14c0,0-1.65-30.32-33.89-20.79S860.11,74.54,875,104.62,941.9,189.8,988.82,197.07Z" transform="translate(15.22 21.27)"/><path class="cls-5" d="M374.33,546.94a207.25,207.25,0,0,1,13.84-43.53c18.42-41.39,46.15-66.36,59.38-78C635.6,259.5,695.84,214.64,695.84,214.64,839,108,869.87,92.09,870.43,92.87c.13.18-1.09,1.73-.7,2.1s1.09,0,4-2.12c0,0,37.29,55.92,51.67,64.36s18,.29,66.63,40.08c0,0,18.44,8.61.75,30.58S613.84,690,613.84,690s-31.44,54.77-68.26,13.75S374.33,546.94,374.33,546.94Z" transform="translate(15.22 21.27)"/><path class="cls-6" d="M508.59,787,525,768.65c59.73-36.9,34.47-58.73,34.47-58.73-46.26-67.23-155.7-147.64-172.66-163.72S355.61,561,350,568.56s-50.51,51.09-50.51,51.09-61.37-35.86-77.41-43.51-34.53-14.39-69.17,14.46S83.71,749,72.27,777.55s31.39,79.27,31.39,79.27L225.58,999.2s62.85,17.58,95.76,26.35,51.35,3.58,51.35,3.58c25.9-17.79,94.42-65.27,149.94-109.56,6.64-5.29,15.5-12.54,20.14-25C542.77,894.57,551.19,872,508.59,787Zm-308.7-70.87s10.86-47.23,22-45.18,9.8,2.06,9.8,2.06-8.06,15.33,6.78,19.94A254.11,254.11,0,0,0,199.89,716.15Z" transform="translate(15.22 21.27)"/><path class="cls-7" d="M44.88,955.21s11.93-18.76,10-38-9.62-47.9,10-43.86,21.93,5,28.28-4.49,20.64-39.42,52.07-22.19,39,28.25,41.29,29.54,5.14,6,12-5.52,36.6,12.6,43,25.55,18.74,39.11,5.82,49.91-71.07,91-71.07,91S17.89,1002.63,44.88,955.21Z" transform="translate(15.22 21.27)"/><path class="cls-8" d="M52.42,956s5.35,27.76,29,31.69,38.54,4.63,50.74-27.3c0,0,18.56-24.86,29.59-18.86s4.59,15.81-7.49,23.15-25.05,24.38-8.56,32.08,46,13.07,67.44-44.53c0,0,20.93-34.57,34.84-8.77s-14.24,8.65-25.17,64-62.2,68.22-100.63,69.13S6,1051.52,5.51,1018.72,35.72,926.53,52.42,956Z" transform="translate(15.22 21.27)"/><path class="cls-7" d="M376.35,725.82s-36.27,20.23-60.92-21.07a90.83,90.83,0,0,1-.32-15.6,57.62,57.62,0,0,1,8.41-24.49c1.49-2.41,6.22-9.61,26.54-23.17,16.89-11.26,25.33-16.89,31.5-16.87,25,.07,47.89,39.07,41.28,53a13.77,13.77,0,0,1-3.6,4.71c-5.8,4.41-12.51-.11-22.23,2.82a24.41,24.41,0,0,0-8.76,4.64C380.92,695.93,379.24,705.38,376.35,725.82Z" transform="translate(15.22 21.27)"/><path class="cls-7" d="M254.38,640.36s-22.54,15-22.39,28-7.79,15.65,3.8,23.77,25,11.41,32.59,23.85,43,8.18,42-10.62,8.62-48.88,13.21-50.08,3.95-18.9-20.78-32.88c0,0-12.45-7.35-13.95-10.69S250.08,626.73,254.38,640.36Z" transform="translate(15.22 21.27)"/><path class="cls-9" d="M960.88,176.15c13.91-.32,42.56-3.24,64.9-23.91,21.81-20.18,28.51-48.86,34-72.33a190.31,190.31,0,0,0,4.15-24.62c1.43-17-.6-28.09,1-28.36s5.23,9.48,6.67,19.83c.48,3.4,1.2,10.42-1.07,27.23a206.38,206.38,0,0,1-5.35,28c-2.83,10.57-11.27,40.92-34.09,69.7,0,0-13.22,16.66-30,22.4a21,21,0,0,1-8.47,1.24c-5.09-.36-8.73-2.65-11.86-4.71C975.61,187.28,968.79,182.5,960.88,176.15Z" transform="translate(15.22 21.27)"/><path class="cls-9" d="M911.32,143.26a41.85,41.85,0,0,0,8.91-3c15.68-7.42,22.07-22.79,28-35.52a495.14,495.14,0,0,1,28.32-52.16,419.6,419.6,0,0,0-23.22,72.35c-3.05,13.93-6.55,33.77-19.3,38a18.85,18.85,0,0,1-11.47-.2" transform="translate(15.22 21.27)"/><path class="cls-10" d="M868.34,97.11a166.62,166.62,0,0,1,19.59-34.6A169.46,169.46,0,0,1,940.1,16.17c3.48-3.33,24-22.44,44.55-16.62a29.24,29.24,0,0,1,6.4,2.67,23.94,23.94,0,0,1,9.83,20.6c-3.69-5.42-9.38-11.62-17.49-13.55-19.57-4.65-39.56,18.83-57.72,40.16-15.59,18.3-24.74,29.36-27.13,47.24-2.29,17.12,2.85,31.34,6.44,39.1" transform="translate(15.22 21.27)"/><path class="cls-10" d="M935.23,161c.91-4,2.33-10.16,4.28-17.53,5.94-22.47,15-55.68,36.51-90.28,14.26-22.92,22.83-28.5,25.57-30.17,4.53-2.79,25.5-14.81,46.88-6.4A44.4,44.4,0,0,1,1062,25.1a65.65,65.65,0,0,0-25.39-1c-47.47,7.73-84.3,71.11-79.13,124.84a106,106,0,0,0,6.37,27.19Z" transform="translate(15.22 21.27)"/><path class="cls-11" d="M374.36,544.93s6.84-66.66,103.53-147.52S814.9,110.51,870.52,95c0,0,2.37-6.49,19.94,24.5,0,0-18.84-25.8-49.18,8.42S591.47,324.59,477,433.31c0,0-95.42,75.68-52.85,142.61" transform="translate(15.22 21.27)"/><path class="cls-11" d="M572.06,491.06,926.4,158.91l25.25,15.59s-18.76-13.22-34.93,8S627.06,465.21,572.06,491.06Z" transform="translate(15.22 21.27)"/><path class="cls-12" d="M455.88,612.67c-.68,1.06,40.79,20.42,74.63,61.63,23.74,28.92,22.09,42.24,34.76,47,31.41,11.82,81.34-55,159.06-155.23C828.8,431.37,942.09,289.76,935.23,298.81l48.19-59.69s33.65-31.72,6.5-46.75S945,161.1,933.79,161.16c-.46,0-1.25,0-1.47.45-1.78,3.55,42.57,17.18,49.08,42.69,1.14,4.44,2.87,16.08-24.28,53.62-17.47,24.15-26.2,36.22-46.74,53.74-28.42,24.26-106.22,107-292,321-14.2,9.49-33.46,18.94-56.83,20.46C504.63,656.89,456.71,611.39,455.88,612.67Z" transform="translate(15.22 21.27)"/><path class="cls-13" d="M220.77,999.52s109.26,28.62,128.07,38.73S515.05,925.52,515.05,925.52s-121.43,84.25-162.39,82.53-90.69-45-121.9-31.71" transform="translate(15.22 21.27)"/><path class="cls-13" d="M102.59,856.38s-44-54-28.57-89.32,18-42.14,18-42.14S69,797.4,123,846.21" transform="translate(15.22 21.27)"/><path class="cls-13" d="M494.14,768.87s58.76-39.39,46.57-59.44-17.61-25.13-13.32-30.74l2.43-3.16s50,40.94,31.07,60.48-57.05,47.73-53.65,57.72Z" transform="translate(15.22 21.27)"/><path class="cls-14" d="M192,884.11a95.73,95.73,0,0,1,6.24,27.33c.43,5.93.29,12.51,3.8,20.43a42,42,0,0,0,6.34,10.06,11.09,11.09,0,0,1,3.22,3.22,9.42,9.42,0,0,1,1.74,4.58c.34,4.2,0,1.1,0,1.1.67-6.42-.62-10.66-1.95-13.39-1-1.93-1.84-2.93-2.55-5.29a19.13,19.13,0,0,1,0-10.15c2.17-9.49,5.51-24.12-.12-33.26-1.56-2.53-3.35-3.91-7.17-10-1.76-2.79-3.05-5.15-3.86-6.7-3.29,5.69-5.23,7.15-6.43,7.21C188.45,879.41,192,884.11,192,884.11Z" transform="translate(15.22 21.27)"/><path class="cls-14" d="M15.27,1039.84a44.68,44.68,0,0,1-9.49-17.07c-4.52-15.79,1.79-29.3,9.13-45,5.58-11.92,14.82-31.69,25.56-30.86,3,.23,5.12,2.21,9.25,6.15,13.49,12.86,12.59,22.37,21.64,29.26,9.54,7.25,22.07,5.47,26.11,4.89,22.06-3.14,32.48-23.35,33.5-25.4,0,0-9.27,36.48-38.06,33.51S57,983.62,49.45,981.4c-9.07-2.65-18.23,1-22.94,3.79C13,993.12,7,1015.91,15.27,1039.84Z" transform="translate(15.22 21.27)"/><path class="cls-15" d="M138.32,986.11c1.17,1.77,8.8,12.91,23.3,14.91,18.11,2.49,30-11.62,30.7-12.44,0,0,14.08-15.38,17-27.22.34,19.23-8.9,36.37-23.92,43.61-11.14,5.37-30.1,7.53-40.44-3.6C140.17,996.26,138.78,990,138.32,986.11Z" transform="translate(15.22 21.27)"/><path class="cls-16" d="M46.72,1058.7a169.2,169.2,0,0,0,43.75,14.55,173.35,173.35,0,0,0,82.51-5,76.62,76.62,0,0,0,26.09-15.66c19-17.41,23.32-39.43,24.47-47.13a56.25,56.25,0,0,1,2.3-12.61,59.16,59.16,0,0,1,17.83-27,11.88,11.88,0,0,0,4.09-2.29c4.54-4,4.28-10.17,4.23-11.17a49.63,49.63,0,0,0-10.37,6c-1.62,1.21-5.93,5.57-12.07,12.93-7.89,9.46-7.09,15.93-13,29.37,0,0-4.66,10.64-15.83,25.19-25.28,32.92-78.32,38.78-92.21,39.85A168.11,168.11,0,0,1,46.72,1058.7Z" transform="translate(15.22 21.27)"/><path class="cls-14" d="M141.08,950.4c3-6.35,8.78-10.39,14.69-10.15,6.56.26,12.87,5.79,12.46,9.4,0,0,0,.52-2.48,5h0S162.54,939.61,141.08,950.4Z" transform="translate(15.22 21.27)"/><path class="cls-14" d="M214.88,950.34s14.8-23.1,26.9-14.3c0,0,7.52,5.65,7.31,10.69C249.09,946.73,232.33,930.94,214.88,950.34Z" transform="translate(15.22 21.27)"/><path class="cls-17" d="M51.64,886.2c.28-8,3-10.63,4.56-11.65,3.47-2.24,8.86-1.22,19.66.82,4.89.93,6.22,1.47,8.6.81,1.74-.47,4.79-1.79,9.69-8.9,3.89-5.64,4.75-8.85,6.43-11.76,6.22-10.79,21.23-13.34,23.69-13.77,12.27-2.13,21.51,3.34,38.22,13.23,16.42,9.72,29,18.32,37.36,34.66,3.15,6.14,4.85,13.7,4.62,24.07,0,0-5.72,15.42-4.13,20.11,0,0-3.33-2.38-4.07-20.15s-18.8-33.53-18.8-33.53-22.37-12.49-24.62-19.3-19.07-14.81-42.4-2.52c-6.25,17.85-13.68,22.88-19.21,24.25-11.82,2.92-23.43-8.8-30.51-3.14-2.12,1.69-3.09,4.76-5,10.9a59.55,59.55,0,0,0-2.59,13.83Q52.38,895.19,51.64,886.2Z" transform="translate(15.22 21.27)"/><path class="cls-17" d="M199.15,869.34s8.23-9.71,31.14,13.19,24,51.39,21.41,56.37C251.7,938.9,240.78,884.29,199.15,869.34Z" transform="translate(15.22 21.27)"/><path class="cls-18" d="M91.11,721.64c7.64-24,15.12-44.53,21.55-61.13,9.6-24.77,17.55-42.49,31.66-60.47,5.8-7.4,10.44-12,15.69-16.09s20.89-16.15,40.22-16.44c8.9-.14,15.55,1.91,53.4,24.79,14.11,8.53,25.29,15.22,31.32,18.81-4.37,2.67-8,4.62-10.49,5.89-6.74,3.45-8.23,3.59-10.84,6.1-3,2.92-3.6,5.2-5.87,5.51-2.52.35-4.93-2-6.57-4-17.88-9.36-33-11.14-43.27-11C159.94,614.17,113.67,657.3,91.11,721.64Z" transform="translate(15.22 21.27)"/><path class="cls-18" d="M298.7,619.24c2.36-2.47,6-6.18,10.54-10.52,6.87-6.53,10.69-9.53,14.53-13a147.86,147.86,0,0,0,22-24.75c8.68-12.16,9.88-17.84,18.66-23.95a50.67,50.67,0,0,1,11-5.56c15.39-5.28,53.35,24,92.92,72.4a711.89,711.89,0,0,1,53.78,50.45c11.33,11.86,17.81,19.6,17.27,20.14s-6.18-3.77-6.18-3.77h0c-35.57-28.35-62.46-50.08-78.21-62.84-39-31.58-52-42.55-69.13-39.49-13.59,2.42-37.2,15-52.56,34.85-5.27,6.81-11.17,16.43-19.67,16.32C307.24,629.5,302.06,623.92,298.7,619.24Z" transform="translate(15.22 21.27)"/><path class="cls-18" d="M381.63,695.3a44.39,44.39,0,0,1,17.79-10.68c9.41-2.86,25.49-3.89,25.79-7.42,0,0,0-.06,0-.08C426.67,676,477.75,744.87,526,810.49A138.27,138.27,0,0,1,551.73,874a46.33,46.33,0,0,1-3.67,15c-4.9,11.29-11.92,14.66-14.92,19.82-.1.17-.39.7-.68.63-1.71-.39,3.18-28.9-26.25-76.29C474,781.33,439,720.24,406.34,707.72c0,0-8-5.68-28.86,11.8Q379.57,707.42,381.63,695.3Z" transform="translate(15.22 21.27)"/><path class="cls-13" d="M237,692.8s-54.47,33.78-59.2,48,11.11,4,14.52-1.46,46.76-43.15,59.1-30.56,28.75,15.34,28.75,15.34-20.6-14.61-21.69-16.95S248.07,696.76,237,692.8Z" transform="translate(15.22 21.27)"/><path class="cls-13" d="M369.17,729.64s17.64,45.54,24.92,49.81,41.82,71,2.47,106c0,0-1.69,13.75,13.94.91s33.21-45.63,20-66.76-53-97.05-53-97.05Z" transform="translate(15.22 21.27)"/><path class="cls-17" d="M261.92,626s20.29-20.4,30.15-11.78,15.87,15.36,19.59,15.79S331,644.74,324.2,655a83.33,83.33,0,0,0-9.69,20.13s9.09-27.45-3.19-26.14-32.83-24.28-28.67-25.65S267.51,616.8,261.92,626Z" transform="translate(15.22 21.27)"/><path class="cls-17" d="M316.56,678.53c.33-1.36,2.91-23.69,61.36-53.45,0,0,12.46-9.88,39.27,25.37,0,0-10-25.88-43.43-4.38s-61.19,44.88-58.4,59" transform="translate(15.22 21.27)"/><path class="cls-14" d="M238.31,656.09c-2.59,3.11-11.64,14.75-9.42,28.8,3.15,20,33,19.55,40.2,31.34,8.19,13.48,44,4,41.2-10.05,0,0-3,9-10.27,10.7-5.83,1.39-11.11-2.49-15.74-6-15.88-12.16-16.06-26.29-25.86-27.36-1.13-.12-.59.12-12.63.75-3.5.18-6.37.31-8.22.38a14.08,14.08,0,0,1-5.33-5.6C228.94,672.53,231.32,663.35,238.31,656.09Z" transform="translate(15.22 21.27)"/><path class="cls-14" d="M316.23,707.06s13,22.69,33.77,23.7,28.5-8.76,29.33-10.08-4.07-12.4,3.67-27.5c0,0-13.42,14.47-13.85,22.48S345,732.58,316.23,707.06Z" transform="translate(15.22 21.27)"/><path class="cls-13" d="M224.44,996.35l-.83,7.22s102.3,27.93,118,33.25,19.58.14,19.58.14l18.47-10.1" transform="translate(15.22 21.27)"/></svg>